<?xml version="1.0" encoding="UTF-8" standalone="no"?>
<!-- Created with Inkscape (http://www.inkscape.org/) -->

<svg
   xmlns:dc="http://purl.org/dc/elements/1.1/"
   xmlns:cc="http://creativecommons.org/ns#"
   xmlns:rdf="http://www.w3.org/1999/02/22-rdf-syntax-ns#"
   xmlns:svg="http://www.w3.org/2000/svg"
   xmlns="http://www.w3.org/2000/svg"
   xmlns:sodipodi="http://sodipodi.sourceforge.net/DTD/sodipodi-0.dtd"
   xmlns:inkscape="http://www.inkscape.org/namespaces/inkscape"
   width="370.57953"
   height="138.90491"
   id="svg11616"
   sodipodi:version="0.32"
   inkscape:version="0.92.3 (2405546, 2018-03-11)"
   version="1.0"
   sodipodi:docname="Oak_leaf-1.svg"
   inkscape:output_extension="org.inkscape.output.svg.inkscape">
  <defs
     id="defs11618">
    <inkscape:perspective
       sodipodi:type="inkscape:persp3d"
       inkscape:vp_x="0 : 526.18109 : 1"
       inkscape:vp_y="0 : 1000 : 0"
       inkscape:vp_z="744.09448 : 526.18109 : 1"
       inkscape:persp3d-origin="372.04724 : 350.78739 : 1"
       id="perspective11624" />
  </defs>
  <sodipodi:namedview
     id="base"
     pagecolor="#ffffff"
     bordercolor="#666666"
     borderopacity="1.0"
     gridtolerance="10000"
     guidetolerance="10"
     objecttolerance="10"
     inkscape:pageopacity="0.0"
     inkscape:pageshadow="2"
     inkscape:zoom="1.979899"
     inkscape:cx="223.07601"
     inkscape:cy="49.995955"
     inkscape:document-units="px"
     inkscape:current-layer="layer1"
     showgrid="false"
     inkscape:window-width="1920"
     inkscape:window-height="1015"
     inkscape:window-x="0"
     inkscape:window-y="0"
     inkscape:window-maximized="1" />
  <metadata
     id="metadata11621">
    <rdf:RDF>
      <cc:Work
         rdf:about="">
        <dc:format>image/svg+xml</dc:format>
        <dc:type
           rdf:resource="http://purl.org/dc/dcmitype/StillImage" />
        <dc:title></dc:title>
      </cc:Work>
    </rdf:RDF>
  </metadata>
  <g
     inkscape:label="Layer 1"
     inkscape:groupmode="layer"
     id="layer1"
     transform="translate(-286.1388,-397.19544)">
    <g
       id="g11002"
       transform="matrix(0.8758657,0,0,0.8758657,191.48114,-179.69229)">
      <path
         d="M 187.98832,673.85947 C 186.39549,673.04546 185.2806,673.41212 183.74468,674.11167 C 181.96866,675.17322 181.0635,676.86664 180.34048,678.72963 C 180.38415,679.44612 180.08379,680.13234 180.07337,680.84199 C 180.05055,682.39522 180.68571,683.92155 181.32576,685.29529 C 182.28669,687.64502 183.79707,689.73511 185.37333,691.70959 C 185.37489,691.7118 186.56982,693.40452 186.60549,693.44794 C 186.78583,693.66746 187.04478,693.82082 187.19962,694.05902 C 187.60069,694.67599 187.88998,695.73271 187.82574,696.441 C 187.76733,697.08507 187.49898,697.69246 187.3356,698.3182 C 185.60754,700.11636 184.38486,700.01259 182.05839,700.31074 C 181.33783,700.40309 180.58772,700.36684 179.89741,700.59311 C 179.72641,700.64915 176.51292,702.51983 176.32386,702.62927 L 176.2021,702.41893 C 176.78567,702.08112 177.36694,701.73932 177.9528,701.40551 C 178.55887,701.06018 179.24983,700.8374 179.7778,700.38153 C 180.31239,699.91994 180.67624,699.28928 181.07715,698.7078 C 181.4053,698.23184 182.51172,696.66468 182.34701,695.88587 C 182.39788,696.16844 182.4071,696.87267 182.63473,696.69771 C 182.94208,696.46148 181.96821,694.09468 181.78358,693.84848 C 180.68876,691.31593 179.46803,688.84358 178.55183,686.23894 C 178.07807,684.307 177.82654,682.53279 178.07524,680.54596 C 178.12976,680.11038 178.15051,679.66585 178.27044,679.24357 C 178.38769,678.83074 178.6107,678.45557 178.78083,678.06158 C 178.95044,677.6949 179.08863,677.31199 179.28966,676.96155 C 180.21812,675.34307 181.73959,674.11308 183.35008,673.22979 C 183.67397,673.08701 183.98202,672.90083 184.32175,672.80144 C 185.64898,672.41315 187.04922,672.79866 188.23698,673.404 L 187.98832,673.85947 z"
         id="path10916"
         style="opacity:1;fill:#677821;fill-opacity:1;fill-rule:nonzero;stroke:none;stroke-width:8;stroke-linecap:round;stroke-miterlimit:4;stroke-dasharray:none;stroke-opacity:1" />
      <path
         d="M 182.21657,699.28993 C 181.55557,700.48292 181.04952,701.73339 180.35844,702.908 C 178.89123,704.66988 176.53813,704.88362 174.41091,705.20256 C 171.02458,705.67885 167.58996,705.50209 164.18643,705.35545 C 159.91235,704.85791 155.62874,704.44803 151.43061,703.48325 C 147.49553,702.96419 143.54803,702.0377 139.55214,702.36087 C 138.7903,702.42249 138.03914,702.57909 137.28263,702.6882 C 134.20077,703.04161 130.87016,703.83894 128.67051,706.23194 C 127.54942,707.45157 127.18329,708.71366 126.57618,710.19778 L 126.35132,710.10554 C 126.63615,709.41315 126.85521,708.68989 127.20582,708.02838 C 127.57184,707.33779 128.05862,706.71827 128.49152,706.06751 C 130.00576,703.79126 131.63145,701.61588 133.92502,700.04217 C 134.75105,699.47541 135.68592,699.08643 136.56638,698.60856 C 137.51828,698.41773 138.45826,698.15254 139.42209,698.03606 C 141.61481,697.77105 142.7069,697.94956 144.8686,698.18962 C 147.3634,698.46667 149.80373,698.93823 152.23467,699.56815 C 152.99257,699.70544 153.75569,699.81645 154.50835,699.98001 C 157.85775,700.70787 161.12513,701.84475 164.55175,702.21171 C 167.76121,702.83191 170.98939,703.21581 174.26042,703.28814 C 176.08097,703.2821 178.11299,703.3914 179.684,702.32619 C 180.73679,701.51241 181.42132,700.36601 181.9998,699.18002 L 182.21657,699.28993 z"
         id="path10918"
         style="opacity:1;fill:#677821;fill-opacity:1;fill-rule:nonzero;stroke:none;stroke-width:8;stroke-linecap:round;stroke-miterlimit:4;stroke-dasharray:none;stroke-opacity:1" />
      <path
         d="M 136.77874,699.55188 C 135.50787,701.17814 134.52548,702.98981 133.53694,704.79357 C 132.43651,707.14258 131.93556,709.73487 132.51128,712.31174 C 132.68111,713.07186 132.99353,713.79292 133.23466,714.53352 C 134.57217,718.19197 137.1168,721.17436 140.06609,723.6607 C 140.82248,724.29836 141.64433,724.85423 142.42227,725.46542 C 143.16017,726.04516 143.88292,726.64393 144.61325,727.23318 C 146.05567,729.33044 148.07213,730.38086 150.27962,731.44759 L 150.17386,731.66642 C 147.96745,730.59991 145.79555,729.48055 143.33071,729.12196 C 142.45678,728.62187 141.53618,728.19569 140.70891,727.62169 C 136.28237,724.55032 132.98606,720.08122 131.07232,715.08735 C 130.89966,714.21237 130.66732,713.34708 130.55433,712.46242 C 130.1725,709.47298 130.87945,706.69727 132.59498,704.23779 C 133.71695,702.46319 134.99714,700.80356 136.36618,699.21197 L 136.77874,699.55188 z"
         id="path10920"
         style="opacity:1;fill:#677821;fill-opacity:1;fill-rule:nonzero;stroke:none;stroke-width:8;stroke-linecap:round;stroke-miterlimit:4;stroke-dasharray:none;stroke-opacity:1" />
      <path
         d="M 140.08406,727.04053 C 138.95087,727.91246 137.98796,729.0278 137.06067,730.1216 C 135.83087,731.60174 134.26531,732.64383 132.68708,733.71132 C 131.66233,734.50222 130.50571,735.09933 129.47081,735.87555 C 129.05875,736.18462 128.68978,736.54867 128.27657,736.8562 C 124.93116,739.346 128.79606,736.20186 125.39323,739.04055 C 122.70174,741.06679 119.73386,742.75633 117.13378,744.90545 C 116.67655,745.28339 116.26093,745.70902 115.8245,746.1108 C 113.65069,748.15292 112.64188,750.86357 112.57836,753.82398 C 112.56152,754.60937 112.63937,755.39393 112.66987,756.17891 C 113.43748,761.54698 116.38399,766.16315 118.98881,770.79758 C 120.08864,772.4356 120.35988,773.26825 122.14181,774.25966 C 122.82422,774.63934 123.61488,774.77876 124.35141,775.03831 L 124.27046,775.26747 C 121.87293,774.41848 119.45082,773.61613 117.17024,772.47473 C 116.37353,771.89573 115.49834,771.41162 114.78012,770.73772 C 114.0292,770.03315 113.39849,769.20511 112.79574,768.37025 C 110.25003,764.8442 108.95251,760.66022 108.26836,756.40989 C 108.20416,755.39021 108.05199,754.37227 108.07576,753.35085 C 108.1726,749.18887 109.93357,745.47535 113.15373,742.85287 C 116.41289,740.44744 119.78295,738.20426 123.08855,735.86531 C 123.63135,735.52365 124.17414,735.182 124.71693,734.84034 C 125.19667,734.48554 125.65785,734.10417 126.15614,733.77593 C 126.61311,733.4749 127.10848,733.23645 127.57812,732.95559 C 128.72858,732.26758 129.83978,731.50413 131.07382,730.96514 C 132.63133,730.19169 134.10437,729.26728 135.60575,728.39239 C 136.93218,727.61415 138.15937,726.67141 139.59714,726.10787 L 140.08406,727.04053 z"
         id="path10922"
         style="opacity:1;fill:#677821;fill-opacity:1;fill-rule:nonzero;stroke:none;stroke-width:8;stroke-linecap:round;stroke-miterlimit:4;stroke-dasharray:none;stroke-opacity:1" />
      <path
         d="M 113.68808,763.96162 C 113.50547,764.16171 113.28934,764.25558 113.46405,764.56665 C 113.56193,764.74092 116.04547,766.26148 116.11517,766.30392 C 119.52344,768.04177 123.15982,769.23842 126.86151,770.16226 C 130.15618,771.10938 133.57523,771.69583 136.98774,772.02345 C 137.43356,772.06037 137.87939,772.09729 138.32522,772.13421 C 138.71944,772.20213 139.11027,772.29401 139.50788,772.33799 C 141.11009,772.51521 141.67561,772.36381 143.20981,773.03677 C 143.75435,773.33396 144.73598,773.81493 145.13018,774.28622 C 146.12849,775.47975 146.39538,777.36542 145.91653,778.81827 C 145.75433,779.31039 145.4039,779.71892 145.14758,780.16924 C 144.05523,781.43796 142.65025,781.78421 141.11129,782.19249 C 140.72477,782.29504 140.30957,782.3272 139.95493,782.51199 C 139.70451,782.64248 139.55781,782.91365 139.35342,783.10849 C 139.19042,783.26387 139.01982,783.41109 138.85302,783.56238 L 138.68976,783.38234 C 138.82524,783.25954 139.7294,782.45325 139.77368,782.35007 C 140.26603,781.20276 139.68096,779.00704 139.8931,777.71745 C 140.02622,776.51882 140.21864,778.64015 140.91491,778.0636 C 140.95897,778.02711 140.89301,777.95129 140.88206,777.89513 C 140.18613,777.46711 139.39078,776.93654 138.625,776.66298 C 137.86019,776.38977 137.01066,776.40144 136.26871,776.04325 C 134.66151,775.61929 133.0358,775.31244 131.42566,774.89885 C 129.26133,774.34291 129.93666,774.49687 127.76107,773.84459 C 127.12687,773.65445 126.49038,773.47205 125.85504,773.28579 C 122.10527,771.80902 118.36827,770.20612 115.01052,767.95135 C 113.93521,767.17121 112.45641,766.33392 112.21743,764.86529 C 112.06691,763.94027 112.64124,763.4676 113.3893,763.17981 L 113.68808,763.96162 z"
         id="path10924"
         style="opacity:1;fill:#677821;fill-opacity:1;fill-rule:nonzero;stroke:none;stroke-width:8;stroke-linecap:round;stroke-miterlimit:4;stroke-dasharray:none;stroke-opacity:1" />
      <path
         d="M 142.09614,777.07831 C 142.6532,778.9665 143.98331,780.41879 145.31188,781.80764 C 146.85469,783.0098 148.8847,783.69063 150.86089,783.31359 C 151.35888,783.21858 151.8237,782.99567 152.30511,782.8367 C 152.82125,782.64779 153.36365,782.51919 153.85351,782.26996 C 154.97706,781.69831 156.00586,780.7769 156.92506,779.94203 C 158.69068,778.3384 160.30877,776.57859 161.9848,774.88365 C 164.47382,772.56606 162.84568,774.29465 164.7008,771.8082 C 165.03373,771.36198 165.39835,770.9403 165.74713,770.50635 L 165.93654,770.65864 C 164.69567,772.20149 163.45176,773.59106 163.0702,775.6212 C 160.73164,780.85851 158.62157,784.29945 152.91039,786.20288 C 148.88675,786.50678 146.43178,786.42006 143.77189,783.06247 C 142.54873,781.3326 141.70017,779.3688 141.23046,777.30039 L 142.09614,777.07831 z"
         id="path10926"
         style="opacity:1;fill:#677821;fill-opacity:1;fill-rule:nonzero;stroke:none;stroke-width:8;stroke-linecap:round;stroke-miterlimit:4;stroke-dasharray:none;stroke-opacity:1" />
      <path
         d="M 164.50048,772.52857 C 164.66522,772.45371 164.83976,772.39744 164.99471,772.30398 C 165.20262,772.17857 165.37893,772.0059 165.58358,771.87526 C 166.72005,771.14977 167.93991,770.54198 169.13728,769.92593 C 171.01642,768.88198 173.08013,768.43241 175.15322,767.97075 C 176.11447,767.77204 177.11519,767.6695 178.03723,767.30952 C 178.31756,767.20007 178.571,767.03044 178.84628,766.90884 C 179.12666,766.78498 179.43666,766.72617 179.70264,766.57382 C 179.98751,766.41063 180.2223,766.17246 180.48213,765.97178 C 181.44158,765.71795 182.6093,763.60524 183.37383,763.27941 C 183.76785,763.11149 184.22371,763.17108 184.64667,763.10355 C 185.05801,763.03787 185.46633,762.95444 185.87615,762.87988 C 187.19553,762.41229 186.68193,762.79644 187.48052,761.81774 L 187.66881,761.97142 C 186.8716,762.94801 187.12949,762.36343 187.02735,763.77773 C 187.03161,764.11856 187.084,766.23472 186.97853,766.53299 C 186.57874,767.66358 183.74989,769.51253 182.76802,770.1952 C 182.55119,770.28504 180.27225,771.24055 179.99997,771.31038 C 178.52786,771.68797 176.94196,771.46198 175.44788,771.44707 C 173.61981,771.31652 171.79513,771.50122 170.04725,772.0783 C 168.46509,772.60491 166.80139,773.13066 165.39972,774.03571 L 164.50048,772.52857 z"
         id="path10928"
         style="opacity:1;fill:#677821;fill-opacity:1;fill-rule:nonzero;stroke:none;stroke-width:8;stroke-linecap:round;stroke-miterlimit:4;stroke-dasharray:none;stroke-opacity:1" />
      <path
         d="M 186.08394,764.2809 C 186.15111,765.70255 186.32207,767.14805 186.115,768.56508 C 185.85144,770.39202 184.92142,771.99518 183.93048,773.51689 C 183.38597,774.21442 182.90298,774.95411 182.41063,775.68775 C 182.29116,775.86578 182.13717,776.0228 182.04244,776.21514 C 181.98725,776.32718 181.89877,776.48 181.96981,776.58273 C 182.02533,776.66303 182.1613,776.54458 182.25705,776.5255 C 182.87207,776.82091 182.29573,775.77549 182.56908,775.76668 C 182.74463,775.76101 182.87396,775.94171 183.03189,776.01858 C 183.30753,776.15274 183.593,776.26599 183.86902,776.39937 C 184.66032,776.78177 185.44115,777.1855 186.23071,777.57148 C 187.76487,778.66074 187.34775,778.17044 188.4638,779.79402 C 188.76199,780.22783 189.07433,780.65659 189.31079,781.1269 C 189.53854,781.57993 189.64982,782.08338 189.84917,782.5496 C 190.61602,784.1269 190.25545,783.33624 190.9329,784.92065 L 190.70931,785.01591 C 190.37234,784.22214 190.17921,783.46643 189.43711,782.91865 C 189.0925,782.66428 188.65606,782.56469 188.25341,782.41861 C 186.88995,781.92393 185.69508,782.02806 184.39964,781.40078 C 182.53879,780.53085 179.28604,779.42364 178.53499,777.28466 C 178.36759,776.80791 178.48461,776.27535 178.45941,775.77069 C 178.61831,775.4339 178.7417,775.07794 178.93611,774.76033 C 179.06642,774.54743 179.2626,774.38266 179.42503,774.19312 C 180.11776,773.38473 180.85215,772.61297 181.51022,771.77441 C 182.45291,770.59337 183.5408,769.49102 184.21867,768.1281 C 184.44055,767.46188 184.71971,766.80571 184.90641,766.12866 C 185.30496,764.68328 184.84016,766.17568 185.14851,764.74822 C 185.18913,764.56021 185.26703,764.38225 185.32628,764.19926 L 186.08394,764.2809 z"
         id="path10930"
         style="opacity:1;fill:#677821;fill-opacity:1;fill-rule:nonzero;stroke:none;stroke-width:8;stroke-linecap:round;stroke-miterlimit:4;stroke-dasharray:none;stroke-opacity:1" />
      <path
         d="M 191.86927,785.33431 C 192.17972,786.17122 192.44385,787.01313 192.68223,787.87445 C 192.74591,788.10458 192.84858,788.32742 192.87276,788.56497 C 192.90004,788.83296 192.84738,789.10313 192.83469,789.3722 C 192.22411,791.69478 190.12486,792.98041 188.38146,794.42532 C 188.04349,794.71754 187.71327,795.01896 187.36755,795.30197 C 186.41379,796.0827 186.11473,796.18484 185.26514,797.07987 C 184.31943,798.07615 183.4663,799.18953 182.69092,800.31936 C 181.81971,801.89526 180.9033,803.45022 180.27269,805.14494 C 179.9791,805.93392 179.76282,806.74959 179.49897,807.54901 C 179.10928,808.55709 179.00416,809.58256 178.89778,810.63976 C 178.86718,810.94387 178.71047,811.24693 178.76693,811.54731 C 178.84354,811.95496 179.17994,812.02014 179.47111,812.1279 C 180.90449,812.57575 182.06636,813.69813 183.46494,814.19436 C 185.17993,814.80285 188.08497,815.12643 189.8528,814.97649 C 191.00742,814.87856 192.12169,814.50416 193.25614,814.268 L 193.30564,814.50594 C 192.16455,814.74321 191.01432,814.94009 189.88237,815.21773 C 185.89466,816.19583 187.08291,816.24496 183.06738,816.87531 C 180.55672,817.26943 179.28998,817.61656 176.98048,816.37755 C 176.22232,815.97081 175.68228,815.24811 175.03319,814.68339 C 174.73043,814.01385 174.28036,813.39295 174.12491,812.67476 C 174.00278,812.11049 174.17512,811.52084 174.22418,810.94559 C 174.36969,809.23937 175.0225,807.63276 175.63886,806.04866 C 176.53588,804.01945 175.82276,805.52268 176.90148,803.53398 C 177.62182,802.20599 178.29148,800.82035 179.14643,799.56996 C 179.44372,799.13517 179.7905,798.73636 180.11253,798.31955 C 180.63311,797.71299 181.64398,796.49996 182.23327,795.95365 C 183.66978,794.62192 185.3436,793.50674 186.97468,792.43663 C 188.16059,791.7318 190.10573,790.59294 191.02673,789.553 C 191.14364,789.42099 191.21699,789.25604 191.31213,789.10756 C 191.76673,787.93049 191.71745,786.66442 191.5226,785.4326 L 191.86927,785.33431 z"
         id="path10932"
         style="opacity:1;fill:#677821;fill-opacity:1;fill-rule:nonzero;stroke:none;stroke-width:8;stroke-linecap:round;stroke-miterlimit:4;stroke-dasharray:none;stroke-opacity:1" />
      <path
         d="M 190.18197,813.50955 C 193.99013,812.93224 197.67447,811.75254 201.3163,810.53185 C 203.14246,809.84335 204.92873,809.20582 206.70477,808.39003 C 207.59455,807.98133 208.44593,807.49303 209.32985,807.07181 C 210.19172,806.66109 211.09813,806.34315 211.941,805.89475 C 212.09957,805.81039 216.45101,803.08052 216.62534,802.9713 C 218.85357,801.16475 221.16939,799.44911 223.19208,797.4035 C 223.90944,796.67801 224.53629,795.86731 225.24316,795.13159 C 230.06512,790.11288 224.99318,795.77026 229.47098,790.6752 C 232.06732,787.94605 234.7531,785.27857 238.05404,783.41004 C 238.81889,782.9771 239.57855,782.5165 240.40356,782.21353 C 241.22211,781.91293 242.10086,781.81267 242.94951,781.61225 C 244.83318,781.57757 245.99932,781.3948 247.82067,781.97924 C 248.55168,782.21381 249.19104,782.67342 249.89321,782.98382 C 251.74165,783.80094 251.51562,783.65751 253.38686,784.05947 L 253.33579,784.29709 C 252.78264,784.17812 252.2412,783.97298 251.67636,783.94018 C 249.8296,783.83296 249.66542,784.2032 247.95162,784.83437 C 243.91207,786.32207 248.41957,784.51107 244.41595,786.15862 C 243.19904,786.703 241.93662,787.15164 240.75546,787.76976 C 237.79671,789.31813 235.22424,791.52147 232.98899,793.9778 C 230.06949,796.89243 231.50601,795.37651 228.68604,798.53179 C 227.91582,799.3172 227.08233,800.03803 226.27155,800.78151 C 223.93708,802.92219 221.59491,805.08598 218.77288,806.58312 C 214.92627,808.76108 217.45909,807.46493 213.42109,809.20314 C 212.49515,809.60172 211.60279,810.08131 210.6572,810.43074 C 209.70756,810.78166 208.71658,811.00855 207.747,811.29989 C 203.65041,812.53082 206.09795,811.83207 202.03913,812.94871 C 198.19266,813.96621 194.29408,815.04173 190.28115,815.00561 L 190.18197,813.50955 z"
         id="path10934"
         style="opacity:1;fill:#677821;fill-opacity:1;fill-rule:nonzero;stroke:none;stroke-width:8;stroke-linecap:round;stroke-miterlimit:4;stroke-dasharray:none;stroke-opacity:1" />
      <path
         d="M 248.42847,785.44491 C 250.93513,785.32552 253.48487,785.50019 255.95549,785.9485 C 256.54507,786.12571 258.35565,786.63758 258.91145,786.93279 C 259.36144,787.17181 259.74568,787.51865 260.14924,787.82971 C 260.52305,788.11783 260.93856,788.36838 261.24245,788.72949 C 261.7906,789.38086 262.21535,790.5971 262.52711,791.36121 C 262.50555,791.89973 262.55758,792.44629 262.46244,792.97679 C 262.00212,795.54345 260.05566,797.94767 258.73566,800.14031 C 258.23278,801.49171 256.52769,803.07902 256.455,804.55902 C 256.43396,804.98753 256.58327,805.12965 256.78672,805.39579 C 257.22019,805.34639 257.19052,804.43092 257.6047,804.46164 C 257.90806,804.48414 258.18446,804.64706 258.47884,804.72371 C 262.00189,805.64106 258.03628,804.47124 262.5423,805.86529 C 265.98416,805.55822 264.35997,806.01322 267.42232,804.52725 L 267.5284,804.74592 C 264.39854,806.26368 265.90934,805.34363 263.02012,807.54526 C 262.24094,808.24353 261.57816,809.09911 260.68257,809.64005 C 258.4478,810.98986 255.10182,811.16774 253.01097,809.4166 C 251.60585,808.23976 251.61557,807.11807 251.26857,805.52248 C 251.30662,804.96206 251.2398,804.38444 251.38272,803.84122 C 251.51092,803.35395 251.82293,802.93428 252.0657,802.49278 C 252.98803,800.81536 254.18058,799.29145 255.44848,797.86478 C 256.83634,796.10943 258.48374,794.29063 259.10132,792.10321 C 259.14018,791.87899 259.24704,791.65623 259.2179,791.43054 C 259.18627,791.18553 259.03307,790.97197 258.9265,790.74909 C 258.7855,790.45421 258.67261,790.13917 258.47569,789.87829 C 257.74316,788.9078 256.60521,788.22632 255.50476,787.78155 C 253.19651,787.04434 250.83902,786.63123 248.42847,786.41745 L 248.42847,785.44491 z"
         id="path10936"
         style="opacity:1;fill:#677821;fill-opacity:1;fill-rule:nonzero;stroke:none;stroke-width:8;stroke-linecap:round;stroke-miterlimit:4;stroke-dasharray:none;stroke-opacity:1" />
      <path
         d="M 268.82902,806.59148 C 270.40934,804.40891 273.2972,803.92374 275.76483,803.3993 C 280.10884,802.77998 284.43082,803.55229 288.70977,804.2601 C 293.74055,805.04402 298.49541,803.15887 303.05587,801.26083 C 306.44135,798.58814 304.82564,799.9836 307.90968,797.08224 L 308.07621,797.25927 C 304.97416,800.17706 306.54883,798.70789 303.3514,801.66591 C 301.56662,803.70289 300.76938,804.89536 298.48329,806.39788 C 295.07603,808.63726 291.74556,808.70624 287.9161,807.76901 C 284.0341,806.64983 280.15855,805.11596 276.04257,805.36968 C 273.81299,805.51488 271.40852,805.6549 269.5622,807.06545 L 268.82902,806.59148 z"
         id="path10940"
         style="opacity:1;fill:#677821;fill-opacity:1;fill-rule:nonzero;stroke:none;stroke-width:8;stroke-linecap:round;stroke-miterlimit:4;stroke-dasharray:none;stroke-opacity:1" />
      <path
         d="M 304.50378,798.87157 C 305.57709,798.66802 306.34869,797.87963 307.12741,797.17995 C 309.01178,795.48685 307.62148,796.84838 309.61622,794.78901 C 310.1294,794.26322 310.64556,793.74032 311.15576,793.21164 C 312.71082,791.60024 313.08614,791.21235 314.58444,789.49656 C 315.15581,788.84226 317.52625,786.02234 318.12125,785.39796 C 318.73648,784.75236 319.40843,784.16329 320.05202,783.54595 C 322.81113,780.91922 325.92685,778.67865 329.49412,777.28804 C 330.05057,777.07112 330.62985,776.9181 331.19772,776.73314 C 333.47301,776.4669 334.72102,776.45459 336.5936,777.94416 C 337.11246,778.35689 337.6047,778.81864 337.99883,779.35177 C 338.82321,780.46686 339.07634,781.55767 339.49974,782.8375 C 339.34593,784.20546 339.28173,785.09901 338.99176,786.43894 C 338.67693,787.89375 338.35693,787.9483 338.64174,789.36683 C 338.72,789.75665 338.91965,790.11188 339.05861,790.4844 L 338.83088,790.5693 C 338.49516,789.66826 338.33777,789.0453 337.71913,788.26405 C 337.37892,787.83443 336.93505,787.49783 336.55809,787.10006 C 333.81964,784.21045 337.06053,787.46786 334.33375,784.76208 C 334.0639,784.15031 333.74473,783.55998 333.49862,782.93829 C 333.37261,782.61998 333.28379,781.90582 332.92275,781.7002 C 332.70291,781.57499 332.42925,781.58849 332.18249,781.53263 C 331.78206,781.54634 331.3781,781.51893 330.9812,781.57376 C 329.62662,781.7609 329.09955,782.03555 327.81733,782.60223 C 325.80176,783.49302 323.85972,784.52928 322.1015,785.87024 C 320.96768,786.78353 319.20213,788.18293 318.12443,789.14518 C 315.6096,791.3906 313.42239,793.96628 310.91656,796.22001 C 309.00354,797.75418 307.08121,799.80103 304.4516,799.77105 L 304.50378,798.87157 z"
         id="path10942"
         style="opacity:1;fill:#677821;fill-opacity:1;fill-rule:nonzero;stroke:none;stroke-width:8;stroke-linecap:round;stroke-miterlimit:4;stroke-dasharray:none;stroke-opacity:1" />
      <path
         d="M 335.90056,787.2339 C 334.81915,789.26273 334.91571,790.85116 335.38904,793.04777 C 335.59854,793.461 335.7514,793.90822 336.01753,794.28746 C 337.23614,796.02404 339.341,797.19238 341.40052,797.56424 C 342.08226,797.68733 342.7823,797.66616 343.47319,797.71712 C 345.8498,798.04786 348.11342,797.45703 350.4043,796.93652 C 351.15339,796.76632 351.91129,796.63327 352.65444,796.43877 C 353.34915,796.25694 354.01768,795.982 354.7145,795.80841 C 355.39758,795.63825 356.09699,795.54211 356.78824,795.40896 C 358.47262,795.25179 359.75529,795.2723 361.33959,794.53784 C 363.01242,793.76234 364.36348,792.38948 365.71842,791.19959 L 365.87877,791.38222 C 364.47832,792.61156 363.01004,793.76792 361.67943,795.07254 C 360.45805,796.27007 359.46182,797.68516 358.16274,798.8096 C 357.46831,799.23652 356.81899,799.74745 356.07946,800.09037 C 355.32998,800.4379 354.51848,800.63398 353.72587,800.86695 C 350.14661,801.919 346.43488,802.15293 342.72041,801.895 C 340.93292,801.42463 339.28799,801.11872 337.65447,800.20113 C 334.81549,798.60641 333.52931,796.41687 332.99958,793.29589 C 332.98848,792.71449 332.91444,792.13087 332.96628,791.55168 C 333.13034,789.71897 333.89773,787.7508 335.2888,786.51984 L 335.90056,787.2339 z"
         id="path10946"
         style="opacity:1;fill:#677821;fill-opacity:1;fill-rule:nonzero;stroke:none;stroke-width:8;stroke-linecap:round;stroke-miterlimit:4;stroke-dasharray:none;stroke-opacity:1" />
      <path
         d="M 361.17645,792.58085 C 363.01835,790.09875 364.62362,787.46266 366.13507,784.76874 C 367.12455,782.61488 368.20641,780.48958 369.0364,778.26553 C 369.79886,776.22243 370.35499,774.0874 370.99761,772.00461 C 371.68322,769.61773 372.43525,767.26259 373.32338,764.94313 C 373.52957,764.40464 373.69524,763.84783 373.95211,763.33159 C 374.21787,762.79752 374.57416,762.3135 374.88518,761.80445 C 377.55621,757.86006 380.32721,757.00662 384.81553,756.29534 C 386.69655,756.6185 386.66352,756.38713 388.22507,757.54854 C 389.0533,758.16452 389.56645,758.97138 390.46094,759.49296 C 390.72196,759.64516 391.03246,759.68928 391.31822,759.78744 L 391.23905,760.01722 C 390.96241,759.92162 390.70176,759.72444 390.40913,759.73041 C 388.50983,759.76921 387.48106,762.12494 385.54396,762.15935 C 383.23233,762.32972 380.93865,762.86894 379.30105,764.62304 C 379.06521,764.9708 377.97732,766.56356 377.80248,766.87203 C 376.62609,768.94752 375.82171,771.23691 374.82033,773.39467 C 372.97248,777.80279 370.81925,782.12015 367.92138,785.94319 C 366.02666,788.43327 364.06629,790.85701 361.90461,793.12023 L 361.17645,792.58085 z"
         id="path10948"
         style="opacity:1;fill:#677821;fill-opacity:1;fill-rule:nonzero;stroke:none;stroke-width:8;stroke-linecap:round;stroke-miterlimit:4;stroke-dasharray:none;stroke-opacity:1" />
      <path
         d="M 386.63401,760.8599 C 385.86369,762.07017 385.30885,764.0377 385.79147,765.44877 C 385.90376,765.77707 386.12648,766.0565 386.29398,766.36037 C 386.51243,766.62709 386.69297,766.92999 386.94932,767.16052 C 388.22072,768.30385 390.56031,768.97748 392.23122,769.06807 C 392.79311,769.09853 393.35523,769.01162 393.91723,768.98339 C 396.32896,768.39946 395.33005,768.74673 397.7465,767.69787 C 398.49655,767.37231 399.27193,767.09641 399.98847,766.70253 C 400.75092,766.28342 401.41111,765.69535 402.16848,765.26712 C 403.22853,764.66774 406.00524,763.48011 407.098,762.99931 C 409.22841,762.10919 410.1208,761.94987 411.8596,760.40936 C 412.45362,759.88308 412.9008,759.21135 413.4214,758.61234 L 413.60483,758.77179 C 413.08117,759.37412 412.51445,759.94156 412.03385,760.57878 C 410.85985,762.13541 410.01258,763.75912 409.04966,765.45005 C 407.68603,767.19377 406.77735,768.60681 404.95046,769.92989 C 404.1254,770.52742 403.16748,770.91599 402.26856,771.39529 C 401.36155,771.87889 400.48547,772.43211 399.53295,772.81843 C 397.04664,773.82683 396.3175,773.72787 393.72678,774.00438 C 391.63017,773.80815 390.64019,773.89637 388.70784,773.03773 C 386.10944,771.88315 384.26565,769.65728 383.33081,767.0264 C 383.30485,766.46959 383.22126,765.91248 383.25295,765.35597 C 383.3718,763.26891 384.44613,761.65477 385.84939,760.20239 L 386.63401,760.8599 z"
         id="path10950"
         style="opacity:1;fill:#677821;fill-opacity:1;fill-rule:nonzero;stroke:none;stroke-width:8;stroke-linecap:round;stroke-miterlimit:4;stroke-dasharray:none;stroke-opacity:1" />
      <path
         d="M 410.08399,760.52868 C 411.92407,757.4579 414.62317,755.15414 417.43965,753.01459 C 418.09505,752.55161 418.7244,752.04937 419.40584,751.62565 C 420.21155,751.12465 422.74317,749.848 423.60773,749.42158 C 425.4174,748.529 427.21254,747.63474 429.07603,746.86164 C 432.05341,745.24528 434.32075,743.0524 436.30156,740.33505 C 437.22939,738.97628 437.70549,737.42296 438.29321,735.91232 C 438.47066,735.45621 438.69595,735.01997 438.8819,734.56726 C 439.0553,734.14512 439.1765,733.70136 439.37095,733.2885 C 439.55567,732.89631 439.80101,732.53565 440.01604,732.15922 C 441.54253,730.88107 440.91284,731.52156 442.10498,730.12144 C 442.3767,729.80232 442.72156,729.53218 442.91698,729.1614 C 443.04621,728.9162 443.00171,728.61358 443.04408,728.33968 L 443.28711,728.3411 C 443.32623,728.62092 443.292,728.92136 443.40447,729.18055 C 443.58128,729.58801 443.91777,729.90753 444.13496,730.29497 C 444.69009,731.2853 445.05215,732.37642 445.61382,733.36308 C 445.6189,733.96289 445.69898,734.56676 445.62906,735.1625 C 445.55605,735.78451 445.3648,736.38801 445.18826,736.9889 C 444.38858,739.71076 442.76945,741.96809 440.98561,744.13692 C 440.09011,745.15297 439.04994,746.39849 438.02797,747.29513 C 435.80943,749.24159 433.55365,750.39575 430.73479,751.21976 C 430.12084,751.43403 429.51944,751.68839 428.89294,751.86258 C 427.60424,752.22087 426.24702,752.30089 424.98505,752.77381 C 422.92713,753.36065 422.89656,753.41817 420.91628,754.27273 C 420.23439,754.56699 419.55657,754.87058 418.87672,755.1695 C 417.4283,756.00195 416.60434,756.41318 415.27727,757.41588 C 414.77465,757.79565 414.32111,758.23647 413.83521,758.63742 C 412.88224,759.42378 411.91531,760.15647 411.20024,761.1847 L 410.08399,760.52868 z"
         id="path10952"
         style="opacity:1;fill:#677821;fill-opacity:1;fill-rule:nonzero;stroke:none;stroke-width:8;stroke-linecap:round;stroke-miterlimit:4;stroke-dasharray:none;stroke-opacity:1" />
      <path
         d="M 183.70451,676.49199 C 186.61846,675.43543 189.69534,674.98885 192.75146,674.57065 C 196.37719,674.36295 200.03571,674.57985 203.63073,675.08976 C 204.96729,675.27934 208.30575,675.9725 209.61543,676.23649 C 213.73577,677.24122 217.72679,678.70886 221.59376,680.43944 C 222.57151,680.87701 223.56252,681.2904 224.5076,681.79466 C 225.43213,682.28796 226.29851,682.88324 227.19397,683.42753 C 228.66294,684.55705 230.25526,685.95243 232.01366,686.65961 C 232.80895,686.97945 233.68205,687.05412 234.51624,687.25138 L 234.46026,687.48788 C 233.61815,687.28832 232.78353,687.05396 231.93393,686.8892 C 229.97385,686.50909 227.96976,686.37788 226.02951,685.8815 C 225.03771,685.53025 224.02346,685.23692 223.05412,684.82774 C 222.08759,684.41975 221.17524,683.89366 220.23205,683.43426 C 216.56041,681.64592 212.8603,679.88853 208.99357,678.55623 C 203.76248,676.78427 198.36562,675.16124 192.79534,675.12832 C 192.05646,675.14344 191.31558,675.1173 190.57869,675.17368 C 188.26035,675.35107 185.98741,675.99876 183.7891,676.71984 L 183.70451,676.49199 z"
         id="path10954"
         style="opacity:1;fill:#677821;fill-opacity:1;fill-rule:nonzero;stroke:none;stroke-width:8;stroke-linecap:round;stroke-miterlimit:4;stroke-dasharray:none;stroke-opacity:1" />
      <path
         d="M 230.63729,684.04858 C 231.50937,684.36372 232.94501,684.63148 233.76156,684.03832 C 233.91631,683.92591 234.01962,683.75593 234.14866,683.61473 C 234.6351,682.55869 235.05513,681.50859 234.9987,680.31608 C 234.9865,680.05811 234.68224,678.31481 234.64007,678.06667 C 233.91357,676.08398 232.66272,674.34689 231.54035,672.57017 C 231.40579,672.10046 231.17766,671.64791 231.13666,671.16103 C 230.92475,668.64445 232.09469,667.32113 233.99524,665.89397 C 235.5068,664.75891 236.61549,664.24956 238.29315,663.34721 C 239.12856,662.91871 239.93256,662.42244 240.7994,662.06171 C 241.47064,661.78238 245.68036,660.49373 246.37529,660.29421 C 247.29679,660.02964 248.22737,659.79772 249.1529,659.54761 C 250.03999,659.30788 250.90717,658.97827 251.81315,658.8247 C 252.68384,658.67712 253.57546,658.70731 254.45661,658.64862 C 255.33106,658.93017 256.20551,659.21172 257.07996,659.49327 C 257.88646,659.99703 258.59533,660.71 259.49947,661.00454 C 260.14271,661.21408 260.85186,660.96305 261.52806,660.9423 L 261.54682,661.18462 C 260.87953,661.26791 260.13039,661.10363 259.54494,661.4345 C 258.00929,662.30238 257.44851,664.45588 255.54167,664.89528 C 254.76977,665.12373 254.01277,665.4105 253.22595,665.58062 C 251.5326,665.94675 249.76249,665.89853 248.10691,666.47996 C 244.11176,667.39777 246.96638,666.79046 243.09309,667.93541 C 242.31931,668.16415 241.5311,668.34085 240.7501,668.54356 C 240.11636,668.79297 239.4678,669.00762 238.84887,669.29179 C 238.36342,669.51468 237.91192,669.80511 237.44344,670.06177 C 237.20745,670.2385 236.99985,670.46147 236.73546,670.59195 C 236.3135,670.8002 236.42811,670.42833 236.0665,670.40956 C 235.99155,670.40567 235.95607,670.51123 235.90086,670.56206 C 236.21708,671.94371 237.0852,673.13294 237.49879,674.49467 C 237.64469,674.97505 237.7148,675.47527 237.81813,675.96657 C 237.93202,676.50802 238.03967,677.05076 238.15044,677.59286 C 238.21383,678.15999 238.34999,678.72367 238.34061,679.29426 C 238.31173,681.05183 237.46374,683.66722 236.073,684.84215 C 235.76057,685.10611 235.35219,685.2289 234.99179,685.42227 C 234.64987,685.50075 234.31557,685.62779 233.96604,685.65771 C 232.64394,685.77086 231.61667,684.91591 230.4747,684.42085 L 230.63729,684.04858 z"
         id="path10956"
         style="opacity:1;fill:#677821;fill-opacity:1;fill-rule:nonzero;stroke:none;stroke-width:8;stroke-linecap:round;stroke-miterlimit:4;stroke-dasharray:none;stroke-opacity:1" />
      <path
         d="M 254.46139,661.04683 C 253.46526,660.96432 252.4778,661.23447 251.49132,661.34614 C 250.70343,661.33376 251.55796,661.75323 251.5903,661.6513 C 251.77907,661.05616 251.44611,660.33511 251.73992,659.7842 C 251.86586,659.54805 252.27132,659.84881 252.53768,659.87492 C 254.84835,660.10142 253.26686,659.85499 256.03547,660.43091 C 260.60822,660.99251 265.12559,661.91915 269.67078,662.65093 C 277.41242,663.89733 270.59442,662.53971 278.41349,664.21869 C 282.7594,664.91366 286.94173,666.25479 291.09533,667.66389 C 294.01194,668.65335 295.6947,669.09163 298.352,670.65264 C 299.39804,671.26714 300.33512,672.05064 301.32668,672.74964 C 303.95551,674.56846 305.52304,677.45178 307.86243,679.55646 C 308.47551,680.10803 309.21084,680.50686 309.86807,681.005 C 310.46432,681.45691 311.03721,681.93884 311.62178,682.40576 L 311.47009,682.59565 C 310.78939,682.05181 308.44534,680.13279 307.727,679.75828 C 305.03178,678.35308 301.84705,678.2124 299.07085,677.02833 C 298.01064,676.64558 296.93388,676.3059 295.89022,675.88008 C 291.2708,673.99533 294.01719,674.82352 289.26306,672.78516 C 285.40341,671.13032 281.34503,669.99317 277.37945,668.63532 C 275.94986,668.2721 274.52027,667.90888 273.09068,667.54566 C 271.69997,667.14816 270.31947,666.71305 268.91857,666.35314 C 264.45558,665.20656 259.89134,664.44288 255.47687,663.09975 C 252.90123,662.55735 254.10972,662.89579 252.01441,662.19268 C 251.73679,662.09952 251.32467,662.17023 251.1809,661.91512 C 250.84024,661.31066 250.69632,660.58006 250.71469,659.88646 C 250.72127,659.63767 251.47743,660.11838 251.52297,660.14466 C 252.51083,660.30839 253.47909,660.64213 254.48327,660.66966 L 254.46139,661.04683 z"
         id="path10958"
         style="opacity:1;fill:#677821;fill-opacity:1;fill-rule:nonzero;stroke:none;stroke-width:8;stroke-linecap:round;stroke-miterlimit:4;stroke-dasharray:none;stroke-opacity:1" />
      <path
         d="M 308.49299,678.19244 C 310.40368,680.01428 312.71616,680.11081 315.20684,679.8956 C 316.96,679.36609 317.83946,678.75023 319.1113,677.47445 C 320.63508,675.94595 320.9684,675.21631 321.86071,673.27522 C 322.5953,671.74031 323.01636,670.11304 323.66552,668.54304 C 323.88829,668.00426 324.05161,667.4358 324.34097,666.92965 C 325.26534,665.31278 325.79537,665.06839 327.21316,663.82107 C 329.58005,662.31493 331.87227,661.78289 334.64642,661.64626 C 335.60649,661.59897 336.5764,661.51549 337.53009,661.63564 C 340.01389,661.94857 340.74396,662.56217 342.91006,663.67771 C 343.72734,664.30004 346.04552,666.14561 347.06841,666.63582 C 347.6576,666.91819 348.3224,667.0033 348.94939,667.18704 L 348.88104,667.42027 C 348.25481,667.23675 347.65089,666.94211 347.00235,666.86972 C 345.46631,666.69825 343.63121,667.12588 342.14902,667.37797 C 340.08183,667.6113 339.4207,667.75688 337.36938,667.71993 C 336.66487,667.70724 335.96482,667.56506 335.2603,667.57744 C 333.74677,667.60404 332.16447,667.91852 330.74486,668.43021 C 330.47076,668.57566 330.17047,668.67993 329.92257,668.86656 C 328.84506,669.67776 328.40659,670.88385 327.85646,672.04837 C 327.6871,672.40688 326.16868,675.39009 326.0317,675.65982 C 324.77686,677.54176 323.45178,679.63385 321.60952,681.01692 C 319.75783,682.40708 317.47604,683.07386 315.1981,683.17578 C 314.49947,683.13015 313.78971,683.17118 313.10219,683.03891 C 310.72448,682.58146 308.6159,680.97194 307.31532,678.97793 L 308.49299,678.19244 z"
         id="path10960"
         style="opacity:1;fill:#677821;fill-opacity:1;fill-rule:nonzero;stroke:none;stroke-width:8;stroke-linecap:round;stroke-miterlimit:4;stroke-dasharray:none;stroke-opacity:1" />
      <path
         d="M 345.09262,667.7667 C 346.25678,668.2123 347.51377,668.49852 348.64528,669.02366 C 349.25809,669.30807 349.82854,669.67612 350.41551,670.01061 C 352.78212,671.35927 352.1482,670.9978 354.51201,672.54568 C 357.50299,674.68604 360.25635,677.28408 362.64127,680.08513 C 363.9918,681.6713 364.86434,683.02915 366.04281,684.73849 C 366.72632,686.46822 368.08525,687.7919 368.9493,689.40935 C 369.34968,690.15885 369.56564,690.99431 369.92223,691.76561 C 370.25642,692.48844 370.70013,693.15824 371.01975,693.88762 C 371.06232,693.98476 372.24622,697.36814 372.33152,697.61152 C 372.75713,698.47176 372.11312,701.16208 372.48413,701.93713 C 373.09618,703.21569 374.32247,703.03514 375.45439,703.18916 L 375.4212,703.42992 C 374.78973,703.34176 374.16023,703.23802 373.52678,703.16543 C 372.59246,703.05837 370.19945,702.9418 369.38339,702.62853 C 367.90347,702.0604 367.26069,701.07428 366.27158,699.95595 C 365.94633,699.18596 365.03133,697.06666 364.78505,696.28933 C 364.5677,695.60329 364.49598,694.87491 364.25858,694.19554 C 364.00553,693.4714 363.58522,692.81423 363.31925,692.09473 C 361.39219,686.88163 363.97962,692.62228 361.53812,687.48451 C 360.31738,685.17467 359.10069,682.79808 357.61132,680.64472 C 356.17978,678.575 354.43945,676.71464 352.66474,674.94161 C 351.11107,673.52425 350.87786,673.227 349.19785,672.01664 C 348.6752,671.64009 348.10952,671.32591 347.58595,670.95064 C 346.61922,670.25773 345.74211,669.43492 344.64951,668.92614 L 345.09262,667.7667 z"
         id="path10962"
         style="opacity:1;fill:#677821;fill-opacity:1;fill-rule:nonzero;stroke:none;stroke-width:8;stroke-linecap:round;stroke-miterlimit:4;stroke-dasharray:none;stroke-opacity:1" />
      <path
         d="M 375.29794,699.52515 C 376.42845,700.40306 377.36891,699.88372 378.25936,698.99793 C 379.68003,697.51109 380.09987,695.37496 380.45608,693.41355 C 380.76659,691.58543 381.02891,689.64085 382.3742,688.22904 C 382.73175,687.85381 383.17176,687.56688 383.57054,687.2358 C 385.14882,686.65376 385.64696,686.31334 387.41788,686.34637 C 389.57223,686.38656 393.046,687.46141 395.00223,688.29351 C 395.93642,688.69088 396.81298,689.21198 397.71836,689.67122 C 398.62923,690.14329 399.52302,690.64988 400.45096,691.08743 C 401.36493,691.51839 402.3789,691.74638 403.24015,692.2749 C 406.00159,693.96952 405.12362,694.27334 407.2885,696.60006 C 409.04715,698.49019 409.75037,698.60786 412.00083,699.77126 C 412.95783,699.8301 413.91484,699.88894 414.87185,699.94778 L 414.85686,700.19036 C 413.89026,700.13035 412.92367,700.07034 411.95707,700.01033 C 408.08248,700.37009 409.60614,700.27693 405.62332,700.44575 C 404.46077,700.49503 403.29206,700.70698 402.13518,700.58206 C 401.08811,700.469 400.04388,700.18644 399.08989,699.74027 C 397.29129,698.89907 396.04344,697.10631 394.096,696.49305 C 388.49095,693.36212 394.76726,696.93402 389.78836,693.91358 C 387.11052,692.28908 389.25881,693.65304 387.10613,692.53145 C 386.85953,692.40296 386.48313,692.12792 386.22823,691.94633 C 386.12482,691.89859 386.0309,691.81816 385.918,691.8031 C 384.9544,691.67457 384.15527,693.86091 383.89118,694.46718 C 383.54539,695.27418 383.27234,696.11325 382.88709,696.90218 C 382.09007,698.53439 380.88192,699.96494 379.37434,700.97446 C 377.38324,701.68906 376.00374,701.89286 374.66153,700.01494 L 375.29794,699.52515 z"
         id="path10964"
         style="opacity:1;fill:#677821;fill-opacity:1;fill-rule:nonzero;stroke:none;stroke-width:8;stroke-linecap:round;stroke-miterlimit:4;stroke-dasharray:none;stroke-opacity:1" />
      <path
         d="M 412.00681,698.34926 C 415.33722,699.98865 419.07251,700.60051 422.67876,701.33945 C 423.75237,701.47354 424.83134,701.57008 425.89959,701.74173 C 427.03071,701.92347 428.14029,702.22775 429.27304,702.39899 C 430.43854,702.57518 431.6198,702.62825 432.78832,702.78311 C 434.08804,702.95535 438.4864,703.6589 439.75224,704.00039 C 440.89551,704.30882 441.98847,704.78013 443.10659,705.16999 C 447.3169,707.4389 445.12688,706.72516 449.64168,707.41568 L 449.6231,707.65801 C 445.01798,707.64985 447.33592,707.34598 442.68246,708.66502 C 441.48427,708.77379 440.29097,708.98208 439.08789,708.99134 C 437.44368,709.00401 433.42806,708.51036 431.8299,708.20314 C 430.62912,707.97231 429.4578,707.60758 428.2657,707.3354 C 427.10042,707.06934 425.9105,706.90734 424.75851,706.58858 C 423.66817,706.28688 422.62055,705.84792 421.55157,705.47759 C 417.70618,704.17805 413.80623,702.76791 410.73346,700.01522 L 412.00681,698.34926 z"
         id="path10966"
         style="opacity:1;fill:#677821;fill-opacity:1;fill-rule:nonzero;stroke:none;stroke-width:8;stroke-linecap:round;stroke-miterlimit:4;stroke-dasharray:none;stroke-opacity:1" />
      <path
         d="M 443.44259,737.19653 C 445.43182,735.23556 447.37353,733.23413 449.34706,731.2559 C 451.55202,729.22753 453.91297,727.23256 456.74018,726.1225 C 458.26898,725.52225 460.42503,725.0966 462.00494,724.73637 C 465.10816,724.35753 468.23343,724.46914 471.34949,724.46896 C 472.42017,724.4689 473.49169,724.39561 474.56142,724.441 C 480.79743,724.70559 474.75834,724.95411 481.0084,724.51486 C 482.08936,724.26855 483.22793,724.20244 484.25128,723.77594 C 486.04352,723.029 488.03872,721.17419 489.49833,719.95057 L 489.65441,720.13688 C 488.83448,720.82331 488.05922,721.56694 487.19462,722.19618 C 485.32768,723.55494 483.19459,724.52165 481.373,725.95038 C 479.31685,726.84237 476.89157,728.04267 474.64742,728.42509 C 473.54015,728.61378 472.40287,728.53366 471.27966,728.53917 C 468.35722,728.55351 465.4371,728.21806 462.51461,728.43092 C 461.69593,728.46163 460.87288,728.43318 460.05856,728.52305 C 456.53157,728.91228 453.25468,730.45367 450.41703,732.52148 C 449.3431,733.28023 448.38543,733.91983 447.38295,734.76785 C 446.96897,735.11804 446.60906,735.52965 446.19006,735.87382 C 445.42383,736.50322 444.5578,737.05366 443.74526,737.62048 L 443.44259,737.19653 z"
         id="path10968"
         style="opacity:1;fill:#677821;fill-opacity:1;fill-rule:nonzero;stroke:none;stroke-width:8;stroke-linecap:round;stroke-miterlimit:4;stroke-dasharray:none;stroke-opacity:1" />
      <path
         d="M 446.95744,702.44294 C 451.76431,700.76814 456.96569,700.69113 461.99897,700.48198 C 468.22715,700.74998 474.62493,701.70425 480.14582,704.79623 C 481.11767,705.34051 482.00111,706.02943 482.92875,706.64604 C 485.96895,709.00554 489.05035,711.57101 491.03436,714.93341 C 491.48439,715.69611 491.93885,716.47293 492.20925,717.3162 C 492.47874,718.15663 492.49396,719.05826 492.63632,719.92928 C 492.52142,720.81811 492.60975,721.7579 492.29163,722.59576 C 491.27612,725.27039 487.62859,727.64149 485.3966,729.32616 L 485.2504,729.132 C 486.52633,728.17367 487.48438,727.80785 487.92774,726.13899 C 488.39996,724.36149 487.2219,722.97342 486.84608,721.3433 C 486.4418,720.30183 486.13933,719.22077 485.69681,718.19497 C 484.43158,715.26204 482.50581,712.73072 480.11426,710.62457 C 478.48141,709.38373 477.08092,708.25045 475.30775,707.195 C 471.20965,704.75567 466.66807,703.35143 461.93312,702.85409 C 460.72397,702.73373 459.519,702.55917 458.30568,702.49301 C 454.60033,702.29098 450.89814,702.71648 447.2591,703.37737 L 446.95744,702.44294 z"
         id="path10970"
         style="opacity:1;fill:#677821;fill-opacity:1;fill-rule:nonzero;stroke:none;stroke-width:8;stroke-linecap:round;stroke-miterlimit:4;stroke-dasharray:none;stroke-opacity:1" />
      <path
         d="M 212.58949,734.65322 C 216.40385,734.41977 220.2053,734.00305 224.00962,733.64629 C 225.36893,733.54359 226.7296,733.45741 228.08757,733.33818 C 233.84651,732.83255 232.59817,732.84972 238.73084,732.2161 C 245.60177,731.5062 245.43156,731.63622 252.5294,730.86917 C 255.09492,730.59191 257.65567,730.27215 260.2188,729.97364 C 265.68792,729.71093 271.08827,728.7422 276.5389,728.29938 C 278.82555,728.11361 291.97018,727.51849 294.10656,727.50499 C 300.68796,727.46342 306.62415,727.91522 313.19639,728.29518 C 316.49923,728.54628 319.80252,728.79145 323.1049,729.0485 C 326.41226,729.30594 329.73361,729.42894 333.02558,729.83866 C 342.30456,730.99351 351.33503,733.77994 360.75795,733.79781 C 363.47212,733.80296 366.16811,733.35389 368.8732,733.13193 C 371.23596,732.7545 373.59871,732.37707 375.96147,731.99965 L 375.9998,732.23965 C 373.63089,732.61782 371.26197,732.99599 368.89306,733.37415 C 363.20433,733.84046 357.52466,734.4143 351.83496,734.86858 C 348.66004,735.12208 345.48552,735.42509 342.30175,735.51458 C 332.16156,735.79962 332.67132,735.4011 322.60814,734.17156 C 319.35112,733.77361 316.091,733.40133 312.83244,733.01621 C 302.43833,732.01105 304.33195,732.101 294.07435,731.47053 C 291.12166,731.28905 288.17014,731.06414 285.21303,730.98174 C 282.37204,730.90257 279.52885,730.9866 276.68677,730.98603 C 265.5547,730.98379 271.29273,730.82171 260.34141,731.4122 C 257.76667,731.55161 255.18969,731.65463 252.61717,731.83043 C 248.00502,732.14563 243.40641,732.6398 238.79507,732.96652 C 233.87731,733.31495 228.9461,733.49414 224.03826,733.98451 C 220.22386,734.27295 216.4157,734.63582 212.59973,734.89605 L 212.58949,734.65322 z"
         id="path10976"
         style="opacity:1;fill:#677821;fill-opacity:1;fill-rule:nonzero;stroke:none;stroke-width:8;stroke-linecap:round;stroke-miterlimit:4;stroke-dasharray:none;stroke-opacity:1" />
      <path
         d="M 359.74786,732.0137 C 365.0711,731.61463 370.4093,731.83735 375.7395,731.97386 C 377.61328,731.98449 379.48705,731.9975 381.36084,732.00575 C 383.54637,732.01538 385.73294,732.09468 387.91745,732.0275 C 392.22931,731.89491 399.50096,731.2498 403.68859,730.85055 C 406.62719,730.57038 418.72384,729.28877 421.5837,728.98754 C 429.82802,727.25399 438.18298,728.47828 446.50048,728.07305 C 446.73568,728.06159 457.89589,726.98435 458.71669,726.90531 L 458.73999,727.14723 C 456.87247,727.32708 455.00509,727.50825 453.13745,727.68678 C 450.933,727.8975 448.71596,728.00167 446.52374,728.31498 C 438.2862,729.49228 430.33551,732.29139 421.93057,732.30597 C 415.47264,732.97585 410.3782,733.56124 403.90833,734.00797 C 396.88004,734.49325 394.77843,734.50423 387.901,734.49657 C 380.34168,734.48815 382.63895,734.53938 375.61543,733.98481 C 370.33116,733.46693 365.04716,732.88468 359.74786,732.57438 L 359.74786,732.0137 z"
         id="path10978"
         style="opacity:1;fill:#677821;fill-opacity:1;fill-rule:nonzero;stroke:none;stroke-width:8;stroke-linecap:round;stroke-miterlimit:4;stroke-dasharray:none;stroke-opacity:1" />
      <path
         d="M 438.77843,724.62 C 439.21392,724.5125 439.65186,724.41446 440.08491,724.29752 C 442.07842,723.7592 443.27477,723.34705 445.37459,722.8167 C 450.00011,721.64845 454.70697,720.7951 459.37574,719.82253 C 464.56619,718.86128 469.80999,717.82367 475.12285,718.18178 C 476.63494,718.28371 478.10886,718.73779 479.6204,718.84751 C 480.89505,718.94004 482.17593,718.78687 483.45394,718.78653 C 484.53955,718.78624 485.62481,718.82593 486.71025,718.84564 L 486.70583,719.08864 C 485.51204,719.06692 480.6221,718.94109 479.63421,719.09016 C 478.16081,719.3125 476.77232,719.92816 475.31913,720.25769 C 470.23231,721.41119 465.02808,721.82453 459.87728,722.57557 C 458.13758,722.84706 456.39228,723.08484 454.65818,723.39005 C 449.4286,724.31046 444.26515,725.67108 438.94538,726.01406 L 438.77843,724.62 z"
         id="path10980"
         style="opacity:1;fill:#677821;fill-opacity:1;fill-rule:nonzero;stroke:none;stroke-width:8;stroke-linecap:round;stroke-miterlimit:4;stroke-dasharray:none;stroke-opacity:1" />
      <path
         d="M 325.67731,735.32986 C 321.98769,737.51199 318.16127,739.48062 314.2901,741.32323 C 307.92567,744.43212 301.86795,748.11823 295.57279,751.35815 C 288.66779,754.91193 292.69519,752.2925 286.83969,756.61047 C 285.78542,757.47846 284.73115,758.34645 283.67688,759.21445 L 283.5224,759.02681 C 284.58008,758.15616 285.63776,757.28551 286.69544,756.41486 C 297.34902,748.55924 283.32987,759.10274 294.62636,749.86122 C 300.19287,745.30733 306.59946,741.93329 312.91299,738.5628 C 317.19488,736.32755 315.24199,737.23948 319.22473,735.5265 C 321.18792,734.68214 323.14183,733.60412 325.32239,733.51347 L 325.67731,735.32986 z"
         id="path10982"
         style="opacity:1;fill:#677821;fill-opacity:1;fill-rule:nonzero;stroke:none;stroke-width:8;stroke-linecap:round;stroke-miterlimit:4;stroke-dasharray:none;stroke-opacity:1" />
      <path
         d="M 360.04946,729.1445 C 356.47069,729.94092 354.38932,728.12759 351.77595,725.92846 C 351.00391,725.19784 350.20935,724.4903 349.45982,723.73659 C 347.55913,721.8253 345.7805,719.79585 343.90021,717.86448 C 340.54635,714.41952 337.15864,711.00328 333.73531,707.62742 C 330.36709,705.00742 328.00635,701.47651 325.48866,698.09836 C 324.81902,697.19987 324.20929,696.25474 323.49226,695.3936 C 322.88593,694.6654 322.18181,694.02451 321.52659,693.33996 L 321.70217,693.17191 C 322.35594,693.85497 322.94647,694.60475 323.66348,695.2211 C 324.50883,695.94779 325.46179,696.53913 326.37045,697.18491 C 329.82678,699.64134 333.51377,701.80055 336.19897,705.17651 C 337.89564,706.91458 341.38671,710.46177 343.01899,712.25086 C 346.56504,716.13758 349.92328,720.20014 353.42918,724.12319 C 355.25978,725.96447 357.20739,728.24832 359.98261,728.46025 L 360.04946,729.1445 z"
         id="path10984"
         style="opacity:1;fill:#677821;fill-opacity:1;fill-rule:nonzero;stroke:none;stroke-width:8;stroke-linecap:round;stroke-miterlimit:4;stroke-dasharray:none;stroke-opacity:1" />
      <path
         d="M 258.19513,727.31799 C 257.40928,727.19129 257.03528,727.16043 256.21268,726.85316 C 252.68915,725.537 248.98531,723.24757 245.68227,721.45866 C 239.35544,717.78729 232.83731,714.38107 226.07815,711.56763 C 221.83243,709.80039 218.89055,708.85116 214.5493,707.34261 C 209.59274,705.51501 208.44882,704.93282 203.37695,703.67996 C 201.87381,703.30864 195.66116,702.13189 193.91565,701.79612 L 193.96156,701.55745 C 201.01374,702.91406 208.0464,704.36216 215.13177,705.5439 C 217.1317,706.14573 219.15672,706.66972 221.13155,707.34939 C 230.12386,710.44422 238.40262,715.14049 246.54817,719.97343 C 250.39338,722.38086 254.21711,724.84923 258.29888,726.84289 L 258.19513,727.31799 z"
         id="path10986"
         style="opacity:1;fill:#677821;fill-opacity:1;fill-rule:nonzero;stroke:none;stroke-width:8;stroke-linecap:round;stroke-miterlimit:4;stroke-dasharray:none;stroke-opacity:1" />
      <path
         d="M 215.89313,738.0814 C 212.4296,737.62232 209.03852,736.76136 205.61408,736.07769 C 204.35364,735.89035 198.77884,735.04586 197.76188,734.96711 C 195.58923,734.79885 189.15176,734.77655 187.14575,734.90655 C 183.87042,735.11881 177.66193,736.06216 174.48355,736.5114 C 172.22755,736.84534 169.95003,737.05698 167.71554,737.51323 C 165.48073,737.96954 163.29516,738.64143 161.09555,739.24502 C 158.72653,739.89509 151.66241,741.97832 149.14997,742.71554 L 149.08154,742.48233 C 157.46712,740.02178 165.94171,737.8301 174.18065,734.9039 C 176.36923,734.38907 178.53426,733.76119 180.74639,733.35939 C 187.90701,732.05878 195.31317,731.87734 202.49515,733.11197 C 203.71799,733.32218 204.91072,733.68034 206.11851,733.96452 C 209.51328,734.90676 212.88921,735.92412 216.05206,737.49918 L 215.89313,738.0814 z"
         id="path10988"
         style="opacity:1;fill:#677821;fill-opacity:1;fill-rule:nonzero;stroke:none;stroke-width:8;stroke-linecap:round;stroke-miterlimit:4;stroke-dasharray:none;stroke-opacity:1" />
      <path
         d="M 223.16869,738.02276 C 221.35751,738.1672 223.80865,737.94198 221.53183,738.27705 C 219.97348,738.50639 220.76335,738.23337 219.10757,738.57864 C 217.65839,738.88083 217.34261,739.06874 215.89077,739.61288 C 212.97754,740.58571 210.29495,742.10516 207.50911,743.37013 C 206.1558,743.98463 204.78297,744.55534 203.41439,745.13503 C 201.89919,745.77682 200.32587,746.291 198.85791,747.03452 C 197.35825,747.7941 195.97617,748.76637 194.53529,749.6323 C 193.16047,750.47913 191.78565,751.32596 190.41083,752.17278 L 190.28337,751.96585 C 191.65843,751.11887 193.03349,750.2719 194.40855,749.42492 C 195.83689,748.53725 197.32679,747.74171 198.69358,746.76191 C 200.04254,745.7949 201.22563,744.6136 202.53788,743.59734 C 206.36701,740.63189 210.53379,738.15692 215.23561,736.86795 C 215.93892,736.77901 216.63838,736.65099 217.34554,736.60113 C 219.35943,736.45912 221.31285,736.80503 223.22933,737.36939 L 223.16869,738.02276 z"
         id="path10990"
         style="opacity:1;fill:#677821;fill-opacity:1;fill-rule:nonzero;stroke:none;stroke-width:8;stroke-linecap:round;stroke-miterlimit:4;stroke-dasharray:none;stroke-opacity:1" />
      <path
         d="M 421.0114,728.49969 C 418.68368,728.48011 416.37246,728.936 414.04741,729.02919 C 413.32476,729.05816 412.60097,729.02082 411.87775,729.01664 C 411.09434,728.97646 410.30138,729.02449 409.52752,728.89609 C 405.80159,728.27791 401.87882,726.00617 399.11828,723.50335 C 398.22838,722.69654 397.46059,721.76452 396.63174,720.8951 C 394.53512,717.80672 392.19075,714.92685 389.39837,712.44071 C 388.56996,711.70315 387.67812,711.04008 386.818,710.33976 L 386.97148,710.15131 C 387.83672,710.85617 388.73372,711.52375 389.56721,712.26589 C 390.47008,713.06981 391.28099,713.97263 392.17593,714.78537 C 394.8875,717.24787 395.06298,717.25002 398.00982,719.37704 C 400.43322,721.25979 402.80914,723.32516 405.47478,724.8689 C 407.52034,726.05353 409.74129,726.71337 412.00065,727.35113 C 414.98689,727.7847 417.99421,728.10986 421.0114,728.15304 L 421.0114,728.49969 z"
         id="path10992"
         style="opacity:1;fill:#677821;fill-opacity:1;fill-rule:nonzero;stroke:none;stroke-width:8;stroke-linecap:round;stroke-miterlimit:4;stroke-dasharray:none;stroke-opacity:1" />
      <path
         d="M 414.52664,737.12666 C 410.72012,738.02537 407.09684,739.52881 403.51847,741.08071 C 402.44338,741.62984 401.39343,742.23126 400.2932,742.7281 C 399.06735,743.28167 397.75083,743.62781 396.54746,744.22867 C 392.89956,746.05012 389.95534,748.74 386.97737,751.45806 L 386.81354,751.27854 C 387.75557,750.41901 388.66579,749.52328 389.63964,748.69997 C 391.74812,746.91742 394.01953,745.33531 396.15098,743.58027 C 397.22023,742.69984 398.16657,741.66599 399.2975,740.86633 C 400.32276,740.14138 401.49016,739.64197 402.5865,739.02979 C 403.58292,738.55712 404.55946,738.04001 405.57577,737.61177 C 408.37849,736.43081 411.47378,735.67607 414.52664,735.98459 L 414.52664,737.12666 z"
         id="path10994"
         style="opacity:1;fill:#677821;fill-opacity:1;fill-rule:nonzero;stroke:none;stroke-width:8;stroke-linecap:round;stroke-miterlimit:4;stroke-dasharray:none;stroke-opacity:1" />
      <path
         d="M 490.87629,724.57156 C 490.1713,724.44707 489.41993,724.28798 488.69956,724.39484 C 488.55092,724.41689 488.29372,724.36914 488.26555,724.51675 C 488.23395,724.68224 488.49169,724.76656 488.60476,724.89147 C 490.83439,725.58698 489.54218,723.57335 490.18982,723.11445 C 490.34485,723.0046 490.56013,723.19994 490.74393,723.24808 C 491.13395,723.35023 491.51812,723.47526 491.91113,723.56527 C 492.4441,723.68733 496.24429,724.4275 496.41015,724.46005 C 499.70765,724.74371 500.37442,724.87041 503.85233,724.851 C 505.39634,724.84239 506.93811,724.68378 508.48203,724.70224 C 510.15906,724.72229 511.83379,724.84512 513.50656,724.96642 C 515.23113,725.09147 516.94341,725.47956 518.67208,725.44114 C 520.26788,725.40568 521.8307,724.97794 523.41001,724.74633 C 528.7627,723.65248 526.18899,724.15584 531.12919,723.22624 L 531.17413,723.46509 C 526.23634,724.3942 528.81013,723.89086 523.45476,724.98522 C 521.8931,725.34205 520.29182,725.55622 518.76978,726.05572 C 512.71695,728.04209 515.09768,728.43452 508.74247,729.56268 C 507.093,729.85549 505.4048,729.88463 503.73017,729.93058 C 499.67927,730.04174 499.18381,729.82117 495.36075,729.28504 C 494.32277,729.04076 493.26089,728.88192 492.24681,728.5522 C 490.73428,728.0604 488.01509,726.75814 487.18326,725.22107 C 486.91819,724.73127 486.576,724.14544 486.73476,723.61163 C 486.93753,722.92986 487.67132,722.54087 488.1396,722.0055 C 488.41202,722.10472 488.70611,722.15762 488.95685,722.30317 C 489.09023,722.3806 489.14468,722.54976 489.25779,722.65461 C 489.81255,723.16886 490.53317,723.47304 491.14909,723.89972 L 490.87629,724.57156 z"
         id="path10996"
         style="opacity:1;fill:#677821;fill-opacity:1;fill-rule:nonzero;stroke:none;stroke-width:8;stroke-linecap:round;stroke-miterlimit:4;stroke-dasharray:none;stroke-opacity:1" />
      <path
         d="M 527.35344,723.58261 C 527.68648,723.5591 528.93283,722.62859 528.79421,722.28402 C 528.74206,722.15438 528.54825,722.15133 528.42527,722.08498 C 528.46242,723.01292 528.61763,723.94365 528.53672,724.86881 C 528.52584,724.99319 528.29677,724.93999 528.17373,724.96121 C 527.8158,725.02297 527.45541,725.06976 527.09535,725.11751 C 525.0791,725.3849 523.07038,725.64856 521.04656,725.85603 C 520.10767,725.94378 519.16525,725.99957 518.2299,726.11928 C 517.18346,726.25322 516.15377,726.50905 515.10429,726.61659 C 512.86301,726.84623 510.09814,726.86521 507.86619,726.64004 C 504.68156,726.31875 503.26937,725.85185 500.17465,725.08502 C 495.53964,725.3159 497.81321,725.2127 493.35405,725.39687 L 493.34402,725.15403 C 497.79968,724.97003 495.52824,725.07311 500.15824,724.84253 C 503.74835,723.40523 507.2621,722.04329 511.08187,721.3296 C 514.4349,720.70311 514.51493,720.87661 517.83757,720.73271 C 518.82912,720.68977 519.81973,720.62707 520.81081,720.57425 C 521.68162,720.58265 522.55361,720.55328 523.42324,720.59944 C 525.11946,720.68948 526.77794,720.99167 528.42954,721.36009 C 528.71015,721.42269 529.15587,721.27588 529.27345,721.53823 C 529.67189,722.42725 529.62313,723.45503 529.79797,724.41343 C 528.89247,724.20184 528.44856,723.55226 527.41183,723.81853 L 527.35344,723.58261 z"
         id="path10998"
         style="opacity:1;fill:#677821;fill-opacity:1;fill-rule:nonzero;stroke:none;stroke-width:8;stroke-linecap:round;stroke-miterlimit:4;stroke-dasharray:none;stroke-opacity:1" />
      <path
         d="M 489.37733,721.02256 C 487.83865,719.53604 485.77715,718.67103 483.85241,717.796 C 481.67064,716.85202 479.47344,715.939 477.271,715.04337 C 476.2998,714.64843 475.35215,714.17643 474.34067,713.90056 C 472.8521,713.49456 469.05297,713.10542 467.55559,712.92881 L 467.58407,712.68744 C 468.74071,712.82397 469.90109,712.93181 471.05398,713.09702 C 472.17134,713.25715 473.27156,713.5317 474.39266,713.66314 C 475.45694,713.78791 476.53521,713.75399 477.60106,713.86458 C 480.12888,714.12687 482.54868,714.72074 484.84666,715.82182 C 487.1384,717.08231 488.95539,718.15979 490.06324,720.63131 L 489.37733,721.02256 z"
         id="path11000"
         style="opacity:1;fill:#677821;fill-opacity:1;fill-rule:nonzero;stroke:none;stroke-width:8;stroke-linecap:round;stroke-miterlimit:4;stroke-dasharray:none;stroke-opacity:1" />
    </g>
  </g>
</svg>
