<?xml version="1.0" standalone="no"?>
<!DOCTYPE svg PUBLIC "-//W3C//DTD SVG 20010904//EN"
 "http://www.w3.org/TR/2001/REC-SVG-20010904/DTD/svg10.dtd">
<svg version="1.0" xmlns="http://www.w3.org/2000/svg"
 width="1792.000000pt" height="425.000000pt" viewBox="0 0 1792.000000 425.000000"
 preserveAspectRatio="xMidYMid meet">

<g transform="translate(0.000000,425.000000) scale(0.100000,-0.100000)"
fill="#fff" stroke="none">
<path d="M2485 4238 c-3 -7 -4 -782 -3 -1723 l3 -1710 337 -3 337 -2 3 782 c4
851 2 818 60 932 24 48 101 131 148 161 82 51 148 69 270 69 106 1 120 -1 177
-28 113 -52 185 -155 217 -308 14 -67 16 -180 16 -827 0 -412 3 -756 6 -765 5
-14 45 -16 340 -16 l334 0 5 23 c3 12 4 389 2 837 -3 911 -3 903 -75 1116 -50
145 -110 249 -202 347 -169 181 -387 269 -665 269 -236 0 -451 -93 -609 -263
l-66 -71 0 596 0 596 -315 0 c-243 0 -317 -3 -320 -12z"/>
<path d="M11875 4244 c-237 -28 -437 -166 -536 -370 -73 -150 -69 -47 -69
-1754 0 -1712 -4 -1606 71 -1760 56 -114 178 -237 289 -293 147 -73 -109 -67
2970 -67 3082 0 2820 -6 2970 68 105 51 232 177 284 282 71 144 66 17 66 1772
l0 1587 -25 79 c-32 101 -103 210 -186 285 -68 62 -203 135 -294 158 -40 11
-588 13 -2780 15 -1501 0 -2743 0 -2760 -2z m1445 -784 c139 -33 241 -90 341
-190 94 -93 144 -171 184 -289 72 -213 52 -469 -53 -665 -71 -132 -217 -263
-358 -320 -115 -47 -192 -56 -473 -56 -223 0 -262 -2 -275 -16 -14 -13 -16
-57 -16 -323 0 -225 -3 -310 -12 -319 -15 -15 -291 -17 -319 -2 -19 10 -19 33
-19 1090 0 593 3 1085 6 1094 5 14 55 16 458 16 418 0 457 -2 536 -20z m1625
-705 c196 -52 304 -157 361 -350 16 -53 18 -118 21 -583 3 -392 1 -527 -8
-538 -16 -19 -287 -20 -312 -1 -10 7 -17 30 -19 62 -4 64 -24 70 -78 21 -94
-85 -228 -127 -404 -127 -186 0 -313 47 -409 151 -82 88 -101 145 -102 295 0
116 1 123 32 186 80 161 240 252 509 289 39 5 160 13 269 16 l198 7 -6 79
c-11 140 -55 200 -171 233 -45 13 -83 16 -155 12 -157 -8 -236 -50 -293 -156
l-17 -32 -153 3 -153 3 1 45 c4 105 107 248 229 315 70 39 174 72 266 85 92
13 322 4 394 -15z m947 -27 c8 -7 102 -247 209 -533 176 -471 212 -555 237
-555 27 0 56 75 207 540 91 283 173 525 181 538 14 21 20 22 158 22 158 0 176
-3 176 -31 0 -17 -601 -1632 -648 -1741 -59 -135 -186 -278 -295 -331 -92 -44
-196 -67 -311 -67 -105 0 -164 11 -178 32 -13 22 -10 274 5 285 7 7 39 7 87 2
208 -24 346 57 411 242 l23 66 -292 749 c-161 412 -292 757 -292 766 0 24 12
26 166 27 98 1 145 -3 156 -11z"/>
<path d="M12699 3164 c-10 -3 -20 -15 -23 -27 -11 -40 -7 -837 4 -858 10 -18
24 -19 264 -19 281 0 307 4 403 67 85 56 151 155 174 263 17 79 7 243 -19 310
-29 74 -86 147 -152 193 -92 64 -125 70 -395 73 -132 1 -247 0 -256 -2z"/>
<path d="M14755 1928 c-202 -11 -292 -29 -347 -71 -54 -42 -78 -84 -85 -149
-11 -120 77 -195 241 -205 190 -12 326 50 392 180 23 44 43 148 44 225 0 37
25 35 -245 20z"/>
<path d="M927 3529 c-189 -20 -388 -98 -537 -210 -131 -99 -224 -225 -276
-374 -26 -73 -28 -93 -28 -220 0 -101 4 -158 17 -203 50 -186 166 -317 379
-427 132 -69 239 -107 549 -195 163 -46 311 -94 348 -113 85 -42 123 -90 129
-159 5 -65 -20 -107 -92 -155 -68 -46 -135 -64 -256 -70 -235 -11 -415 71
-464 213 -10 27 -21 56 -25 64 -7 13 -55 15 -320 18 -210 1 -318 -1 -332 -9
-18 -9 -20 -17 -14 -67 12 -106 36 -187 87 -290 83 -169 229 -310 425 -406
199 -99 364 -131 632 -123 196 6 296 22 436 70 233 80 418 233 510 421 64 129
79 197 78 341 -2 297 -127 508 -386 650 -103 56 -206 90 -519 166 -240 59
-306 79 -372 113 -98 51 -137 95 -144 164 -9 101 66 176 206 203 82 15 239 7
312 -18 74 -24 144 -91 160 -153 6 -25 13 -51 15 -58 4 -10 75 -12 332 -10
l328 3 3 52 c4 68 -29 206 -71 296 -129 276 -423 450 -822 487 -123 11 -175
11 -288 -1z"/>
<path d="M5890 3525 c-266 -38 -487 -121 -710 -265 -118 -77 -140 -97 -140
-128 0 -30 235 -439 260 -452 34 -18 56 -10 126 45 183 146 446 230 764 242
171 6 272 -7 383 -52 238 -95 409 -304 489 -595 20 -76 23 -106 22 -275 0
-164 -3 -201 -22 -269 -78 -283 -260 -468 -537 -548 -69 -20 -102 -23 -240
-22 -145 0 -169 3 -250 28 -183 56 -305 152 -373 293 -36 76 -37 81 -37 193 0
155 20 200 146 322 68 66 89 93 89 113 0 28 -189 395 -223 433 -11 12 -30 22
-42 22 -60 0 -286 -186 -371 -307 -54 -75 -116 -205 -139 -293 -26 -97 -32
-341 -11 -451 44 -235 136 -410 305 -580 178 -179 377 -284 644 -340 136 -29
386 -31 531 -5 306 55 556 186 759 395 185 191 299 408 359 684 19 88 22 132
22 312 0 178 -3 225 -22 311 -67 308 -205 567 -417 780 -205 206 -437 330
-737 396 -122 26 -485 34 -628 13z"/>
<path d="M8031 3386 c-8 -10 -10 -459 -9 -1692 l3 -1679 338 -3 337 -2 0 557
0 558 46 -53 c105 -120 297 -221 499 -263 89 -19 313 -16 413 5 246 52 445
158 618 331 107 107 168 190 235 322 337 662 77 1491 -566 1804 -176 85 -335
121 -535 122 -264 0 -477 -92 -677 -293 l-73 -73 0 180 c0 156 -2 182 -16 187
-9 3 -147 6 -309 6 -234 0 -295 -3 -304 -14z m1504 -671 c201 -67 355 -222
418 -420 18 -58 22 -93 22 -205 0 -121 -3 -143 -27 -208 -38 -104 -83 -176
-158 -252 -76 -75 -148 -120 -252 -158 -66 -24 -87 -27 -208 -27 -121 0 -142
3 -208 27 -260 94 -432 320 -449 586 -15 255 129 503 359 617 120 59 196 76
323 71 75 -3 120 -11 180 -31z"/>
</g>
</svg>
