<?xml version="1.0" encoding="UTF-8"?>
<!DOCTYPE svg PUBLIC "-//W3C//DTD SVG 1.1//EN" "http://www.w3.org/Graphics/SVG/1.1/DTD/svg11.dtd">
<svg xmlns="http://www.w3.org/2000/svg" version="1.1" width="107px" height="129px" style="shape-rendering:geometricPrecision; text-rendering:geometricPrecision; image-rendering:optimizeQuality; fill-rule:evenodd; clip-rule:evenodd" xmlns:xlink="http://www.w3.org/1999/xlink">
<g><path style="opacity:0.878" fill="rgb(238, 150, 72)" d="M 81.5,-0.5 C 81.8333,-0.5 82.1667,-0.5 82.5,-0.5C 83.6977,4.3001 85.1977,8.96677 87,13.5C 90.9581,10.7882 95.1247,9.4549 99.5,9.5C 97.5,12.8333 95.5,16.1667 93.5,19.5C 97.7351,21.4521 102.068,23.1187 106.5,24.5C 106.5,24.8333 106.5,25.1667 106.5,25.5C 101.916,26.2773 97.2497,26.7773 92.5,27C 95.0584,32.2864 95.7251,37.7864 94.5,43.5C 91.4782,41.3119 88.9782,38.6452 87,35.5C 84.5879,40.6587 81.9212,45.6587 79,50.5C 77.7288,45.2461 77.2288,39.9127 77.5,34.5C 72.4636,34.4122 67.4636,33.9122 62.5,33C 66.0716,30.3634 70.0716,28.6967 74.5,28C 70.1667,24.3333 65.8333,20.6667 61.5,17C 66.8333,16.6667 72.1667,16.3333 77.5,16C 79.9097,10.7908 81.243,5.29077 81.5,-0.5 Z"/></g>
<g><path style="opacity:0.85" fill="rgb(238, 150, 72)" d="M 22.5,128.5 C 21.8333,128.5 21.1667,128.5 20.5,128.5C 20.2189,124.812 19.7189,121.145 19,117.5C 14.6267,119.872 10.1267,120.872 5.5,120.5C 6.92995,117.567 8.92995,115.067 11.5,113C 7.36924,111.765 3.36924,110.265 -0.5,108.5C -0.5,107.833 -0.5,107.167 -0.5,106.5C 3.85665,106.414 8.18998,106.08 12.5,105.5C 11.3875,101.493 11.3875,97.4935 12.5,93.5C 14.758,95.6768 16.258,98.3435 17,101.5C 20,97.8333 23,94.1667 26,90.5C 26.3333,94.8333 26.6667,99.1667 27,103.5C 27.5,104 28,104.5 28.5,105C 32.819,105.76 37.1523,106.427 41.5,107C 37.5927,108.566 33.926,110.399 30.5,112.5C 37.0582,123.371 35.3916,125.038 25.5,117.5C 24.031,121.043 23.031,124.709 22.5,128.5 Z"/></g>
</svg>
