<?xml version="1.0" standalone="no"?>
<!DOCTYPE svg PUBLIC "-//W3C//DTD SVG 20010904//EN"
 "http://www.w3.org/TR/2001/REC-SVG-20010904/DTD/svg10.dtd">
<svg version="1.0" xmlns="http://www.w3.org/2000/svg"
 width="4060.000000pt" height="1648.000000pt" viewBox="0 0 4060.000000 1648.000000"
 preserveAspectRatio="xMidYMid meet">

<g transform="translate(0.000000,1648.000000) scale(0.100000,-0.100000)"
fill="#fff" stroke="none">
<path d="M25325 14050 c-923 -54 -1734 -255 -2426 -600 -892 -447 -1537 -1113
-1853 -1916 -98 -249 -162 -501 -203 -794 -25 -182 -25 -640 0 -800 128 -798
617 -1478 1492 -2073 306 -207 531 -335 1070 -607 420 -212 609 -316 806 -446
356 -234 555 -451 629 -689 31 -99 39 -291 15 -406 -21 -107 -65 -213 -126
-303 -60 -91 -200 -226 -304 -295 -234 -154 -569 -265 -960 -318 -160 -21
-721 -24 -945 -5 -776 67 -1334 219 -2124 579 -137 62 -250 112 -251 110 -5
-6 -527 -2459 -524 -2461 20 -16 275 -113 439 -167 615 -204 1395 -347 2190
-404 1064 -75 2082 39 2938 330 582 197 1098 481 1507 827 98 84 324 308 405
403 432 508 690 1092 784 1780 38 275 40 650 6 900 -64 462 -264 918 -567
1295 -160 199 -416 441 -668 630 -335 252 -663 448 -1370 820 -625 329 -840
458 -1061 636 -271 219 -396 444 -380 685 28 425 427 762 1052 888 337 68 812
78 1274 25 543 -62 1099 -209 1605 -425 88 -37 163 -65 166 -61 13 14 511
2364 502 2372 -13 13 -346 125 -553 185 -530 155 -1010 244 -1552 290 -218 19
-802 27 -1013 15z"/>
<path d="M2264 13825 c-26 -102 -61 -291 -56 -296 4 -3 34 -11 67 -18 115 -24
591 -142 775 -192 859 -236 1630 -524 2055 -769 377 -216 502 -394 640 -908
24 -92 558 -2154 1185 -4582 627 -2428 1143 -4423 1146 -4432 5 -17 87 -18
1543 -18 l1538 0 1436 3428 c790 1885 1846 4406 2348 5602 501 1196 914 2183
916 2193 5 16 -70 17 -1521 15 l-1527 -3 -528 -1335 c-290 -734 -966 -2442
-1501 -3795 -534 -1353 -976 -2470 -981 -2484 -5 -13 -11 -22 -13 -20 -3 2
-282 1478 -620 3279 -463 2460 -625 3304 -652 3390 -73 234 -185 422 -349 585
-155 155 -332 262 -535 325 -206 64 -24 60 -2816 60 l-2544 0 -6 -25z"/>
<path d="M17115 13838 c-3 -7 -544 -2535 -1203 -5618 l-1199 -5605 1450 -3
c798 -1 1452 0 1455 2 2 3 147 674 322 1493 968 4526 2070 9682 2076 9711 l7
32 -1452 0 c-1152 0 -1453 -3 -1456 -12z"/>
<path d="M33135 13834 c-416 -73 -772 -337 -958 -709 -31 -62 -4342 -10341
-4404 -10503 -4 -10 301 -12 1522 -10 l1527 3 302 835 301 835 1868 3 c1027 1
1867 0 1867 -3 0 -8 340 -1638 346 -1657 5 -17 78 -18 1350 -18 l1344 0 -5 23
c-3 12 -531 2540 -1174 5617 l-1168 5595 -1319 2 c-1093 1 -1333 -1 -1399 -13z
m1100 -5125 c239 -1148 435 -2094 435 -2103 0 -15 -97 -16 -1200 -16 -771 0
-1200 3 -1200 10 0 5 336 935 746 2067 411 1132 753 2078 762 2103 8 24 17 40
19 35 1 -6 198 -949 438 -2096z"/>
</g>
</svg>
